<svg id="yellowlike" enable-background="new 0 0 511.557 511.557" height="5" viewBox="0 0 511.557 511.557" width="5" xmlns="http://www.w3.org/2000/svg"><path d="m441.941 161.759c-3.325-8.188-12.658-12.129-20.844-8.806-8.188 3.325-12.13 12.657-8.806 20.844 18.693 46.043-44.127 104.77-83.591 135.27-12.046 9.309-5.419 28.661 9.795 28.661 3.417 0 6.86-1.09 9.773-3.341 54.607-42.203 119.532-108.943 93.673-172.628z"/><path d="m379.785 145.295c6.19 1.598 7.284 3.157 11.995 3.157 6.319 0 12.307-3.77 14.831-9.986 3.324-8.188-.62-17.52-8.807-20.843-3.252-1.32-6.623-2.434-10.018-3.311-8.556-2.211-17.283 2.935-19.492 11.491s2.935 17.283 11.491 19.492z"/><path d="m367.786 47.779c-43.879 0-84.917 20.012-112 53.491-27.083-33.479-68.121-53.491-112-53.491-107.628 0-199.469 122.919-103.413 254.198 20.806 28.435 49.632 56.865 85.678 84.5 60.688 46.528 120.454 74.628 122.969 75.801 4.282 1.998 9.234 2.005 13.532 0 2.515-1.173 62.28-29.273 122.969-75.801 36.045-27.635 64.872-56.064 85.678-84.5 95.933-131.111 4.43-254.198-103.413-254.198zm-112 382.172c-38.132-19.212-224-119.014-224-238.173 0-61.757 50.243-112 112-112 40.688 0 78.243 22.134 98.009 57.764 6.082 10.963 21.894 10.975 27.982 0 19.766-35.63 57.32-57.764 98.009-57.764 61.757 0 112 50.243 112 112 0 119.16-185.871 218.963-224 238.173z"/>
<style>
	
	#yellowlike  {
		fill: #cc9800;
	}

	#yellowlike:hover {
		cursor:pointer;
		fill: #1faae2;
	}

</style>

</svg>